<?xml version="1.0" encoding="UTF-8"?>
<svg id="Capa_1" data-name="Capa 1" xmlns="http://www.w3.org/2000/svg" viewBox="0 0 537.96 94.76">
  <defs>
    <style>
      .cls-1 {
        fill: none;
        stroke: #000;
        stroke-miterlimit: 10;
      }

      .cls-2 {
        fill: #58c3de;
      }

      .cls-3 {
        fill: #fff;
      }

      .cls-4 {
        fill: #213255;
      }
    </style>
  </defs>
  <g>
    <path class="cls-4" d="M121.84,61.37c2.83-6.91,5.57-13.85,8.24-20.84,2.66-6.99,5.06-13.69,7.18-20.11,1.36.27,2.56.41,3.59.41s2.23-.14,3.59-.41c-1.36,3.21-2.99,7.07-4.89,11.58-1.9,4.51-3.89,9.3-5.95,14.36-2.07,5.06-4.11,10.2-6.12,15.42-2.01,5.22-3.81,10.12-5.38,14.68-1.09-.11-2.28-.16-3.59-.16s-2.5.05-3.59.16c-.82-2.17-1.81-4.81-2.98-7.91-1.17-3.1-2.42-6.39-3.75-9.87-1.33-3.48-2.73-7.04-4.2-10.69-1.47-3.64-2.88-7.16-4.24-10.56-1.36-3.4-2.64-6.57-3.83-9.5-1.2-2.94-2.23-5.44-3.1-7.51,1.25.11,2.49.2,3.71.29s2.43.12,3.63.12,2.39-.04,3.59-.12c1.2-.08,2.39-.18,3.59-.29.92,3.05,1.97,6.25,3.14,9.63,1.17,3.37,2.38,6.81,3.63,10.32,1.25,3.51,2.54,7.03,3.87,10.56,1.33,3.54,2.62,7.02,3.88,10.44Z"/>
    <path class="cls-4" d="M150.22,41.87c2.28-1.85,4.74-3.26,7.38-4.24,2.64-.98,5.26-1.47,7.87-1.47,2.17,0,4.17.25,6,.73,1.82.49,3.4,1.26,4.73,2.32,1.33,1.06,2.37,2.43,3.1,4.12.73,1.69,1.1,3.73,1.1,6.12,0,3.48-.04,6.7-.12,9.67-.08,2.96-.12,5.91-.12,8.85,0,1.3.09,2.32.29,3.06.19.73.48,1.29.86,1.67.38.38.88.62,1.51.73.62.11,1.35.16,2.16.16v1.96c-1.58.65-2.91,1.14-4,1.47-1.09.33-2.26.49-3.51.49-2.01,0-3.64-.49-4.89-1.47-1.25-.98-2.2-2.39-2.85-4.24-1.25,1.74-2.71,3.13-4.36,4.16-1.66,1.03-3.74,1.55-6.24,1.55-2.07,0-3.83-.27-5.3-.82s-2.68-1.32-3.63-2.33c-.95-1.01-1.65-2.15-2.08-3.43-.44-1.28-.65-2.57-.65-3.88,0-1.79.29-3.34.86-4.65.57-1.3,1.39-2.42,2.45-3.34,1.06-.92,2.32-1.7,3.79-2.32,1.47-.62,3.13-1.16,4.98-1.59,2.28-.54,4.09-1.02,5.42-1.43,1.33-.41,2.33-.82,2.98-1.22.65-.41,1.07-.86,1.26-1.35.19-.49.29-1.09.29-1.79,0-1.96-.69-3.63-2.08-5.02-1.39-1.39-3.3-2.08-5.75-2.08-.93,0-1.88.12-2.85.37s-1.92.58-2.81,1.02c-.9.44-1.71.91-2.45,1.43-.73.52-1.29,1.07-1.67,1.67h-.57l-1.06-4.89ZM169.56,64.06c0-2.34.01-4.12.04-5.34.03-1.22.04-2.3.04-3.22-1.14.65-2.35,1.18-3.63,1.59-1.28.41-2.45.93-3.51,1.55-1.06.63-1.93,1.48-2.61,2.57-.68,1.09-1.02,2.67-1.02,4.73s.42,3.55,1.26,4.61c.84,1.06,1.97,1.59,3.39,1.59,1.79,0,3.25-.68,4.36-2.04,1.11-1.36,1.67-3.37,1.67-6.04Z"/>
    <path class="cls-4" d="M191.18,21.8c0-1.79.62-3.32,1.88-4.57,1.25-1.25,2.77-1.88,4.57-1.88s3.32.63,4.57,1.88c1.25,1.25,1.88,2.77,1.88,4.57s-.63,3.32-1.88,4.57c-1.25,1.25-2.77,1.88-4.57,1.88s-3.32-.62-4.57-1.88c-1.25-1.25-1.88-2.77-1.88-4.57ZM192.15,55.33c0-3.32-.04-6.43-.12-9.34-.08-2.91-.26-5.83-.53-8.77.76.11,1.66.2,2.69.29,1.03.08,2.17.12,3.43.12,2.56,0,4.6-.13,6.12-.41-.27,2.94-.45,5.86-.53,8.77-.08,2.91-.12,6.02-.12,9.34v3.26c0,3.32.04,6.44.12,9.38.08,2.94.26,5.76.53,8.48-.71-.11-1.59-.16-2.65-.16h-6.89c-1.03,0-1.93.05-2.69.16.27-2.72.45-5.55.53-8.48.08-2.94.12-6.06.12-9.38v-3.26Z"/>
    <path class="cls-4" d="M240.41,42.57c-1.28-1.5-3.17-2.24-5.67-2.24-3.26,0-5.71,1.48-7.34,4.45-1.63,2.96-2.45,7.08-2.45,12.36,0,4.95,1.03,8.74,3.1,11.38,2.07,2.64,5.08,3.96,9.05,3.96,1.69,0,3.32-.39,4.89-1.18,1.58-.79,2.75-1.67,3.51-2.65l.98.82c-.38.76-.71,1.55-.98,2.37-.27.82-.54,1.63-.82,2.45-1.2.92-2.71,1.7-4.53,2.32-1.82.62-3.98.94-6.49.94-3.97,0-7.31-.57-10.03-1.71-2.72-1.14-4.91-2.69-6.57-4.65-1.66-1.96-2.84-4.17-3.55-6.65-.71-2.47-1.06-4.96-1.06-7.46,0-2.99.5-5.76,1.51-8.32,1.01-2.56,2.45-4.76,4.32-6.61,1.88-1.85,4.15-3.3,6.81-4.36,2.66-1.06,5.63-1.59,8.89-1.59s5.72.35,7.87,1.06c2.15.71,4.2,1.63,6.16,2.77-.65,1.09-1.26,2.42-1.84,4-.57,1.58-.99,3.07-1.26,4.49h-1.96c-.44-2.45-1.29-4.42-2.57-5.91Z"/>
    <path class="cls-4" d="M261.57,58.19c-.44,6.09-.87,12.18-1.31,18.27-.65-.11-1.31-.16-1.96-.16h-3.79c-.63,0-1.26.05-1.92.16,1.74-9.35,3.29-18.65,4.65-27.9,1.36-9.24,2.61-18.63,3.75-28.14.6.11,1.15.2,1.67.29.52.08,1.07.12,1.67.12.49,0,1.01-.04,1.55-.12.54-.08,1.11-.18,1.71-.29,1.47,3.26,3,6.58,4.61,9.95,1.6,3.37,3.21,6.73,4.81,10.07,1.6,3.34,3.21,6.62,4.81,9.83,1.6,3.21,3.14,6.25,4.61,9.14,3.26-6.09,6.51-12.47,9.75-19.13,3.24-6.66,6.32-13.28,9.26-19.86,1.36.27,2.53.41,3.51.41.92,0,2.07-.14,3.43-.41.54,4.68,1.13,9.71,1.75,15.09.62,5.38,1.24,10.65,1.84,15.78.6,5.14,1.2,9.94,1.79,14.4.6,4.46,1.14,8.05,1.63,10.77-1.09-.11-2.19-.16-3.3-.16h-6.65c-1.14,0-2.28.05-3.43.16-.27-5.6-.72-11.67-1.35-18.19-.62-6.53-1.26-13-1.92-19.42h-.16c-3.1,6.42-6.15,12.73-9.14,18.93-2.99,6.2-5.96,12.43-8.89,18.68-.27-.05-.53-.1-.77-.12-.24-.03-.5-.04-.77-.04s-.53.01-.77.04c-.24.03-.5.07-.77.12-2.94-6.09-5.86-12.18-8.77-18.27-2.91-6.09-5.91-12.26-9.01-18.52h-.16c-.87,6.25-1.52,12.43-1.96,18.52Z"/>
    <path class="cls-4" d="M337.03,56.96c0,2.18.22,4.21.65,6.12.43,1.9,1.1,3.55,2,4.93s2.04,2.48,3.43,3.26c1.39.79,3,1.18,4.85,1.18,3.75,0,7.1-1.22,10.03-3.67l.98.73-1.79,4.57c-1.36,1.03-2.99,1.86-4.89,2.49-1.9.62-4.41.94-7.5.94-2.67,0-5.19-.37-7.59-1.1-2.39-.73-4.5-1.94-6.32-3.63-1.82-1.68-3.26-3.82-4.32-6.4-1.06-2.58-1.59-5.67-1.59-9.26s.47-6.61,1.43-9.22c.95-2.61,2.27-4.79,3.96-6.53,1.68-1.74,3.68-3.05,6-3.92,2.31-.87,4.83-1.31,7.55-1.31,5.38,0,9.5,1.58,12.36,4.73,2.85,3.15,4.28,7.61,4.28,13.38v1.71c0,.49-.03.82-.08.98h-23.41ZM349.59,53.29c-.11-4.08-.61-7.34-1.51-9.79s-2.41-3.67-4.53-3.67c-1.2,0-2.2.41-3.02,1.22-.82.82-1.47,1.86-1.96,3.14-.49,1.28-.86,2.72-1.1,4.32-.25,1.6-.4,3.2-.45,4.77h12.56Z"/>
    <path class="cls-4" d="M403.43,48.48c0,5.33.05,10.23.16,14.68.11,4.46.27,8.89.49,13.3-.71-.11-1.6-.16-2.69-.16h-6.57c-1.01,0-1.78.05-2.33.16.05-.11.11-.46.16-1.06.05-.6.12-1.28.2-2.04.08-.76.15-1.47.2-2.12.05-.65.08-1.06.08-1.22l-.16-.16c-1.03,2.45-2.45,4.34-4.24,5.67s-4.27,2-7.42,2c-2.77,0-5.14-.53-7.1-1.59s-3.56-2.54-4.81-4.45c-1.25-1.9-2.18-4.13-2.77-6.69-.6-2.56-.9-5.3-.9-8.24s.41-5.64,1.22-8.12c.82-2.47,1.93-4.62,3.34-6.44,1.41-1.82,3.09-3.25,5.02-4.28,1.93-1.03,3.98-1.55,6.16-1.55,2.45,0,4.64.57,6.57,1.71,1.93,1.14,3.36,2.58,4.28,4.32h.16c0-4.89-.05-9.5-.16-13.83-.11-4.32-.27-8.8-.49-13.42.71.11,1.6.2,2.69.29,1.09.08,2.23.12,3.43.12s2.34-.04,3.43-.12c1.09-.08,1.98-.18,2.69-.29-.22,4.57-.38,9.08-.49,13.54-.11,4.46-.16,9.35-.16,14.68v5.3ZM377.82,57.78c0,2.77.19,5.11.57,7.02.38,1.9.9,3.44,1.55,4.61.65,1.17,1.4,2.01,2.24,2.53.84.52,1.73.78,2.65.78,2.23,0,4.07-1.26,5.51-3.79,1.44-2.53,2.16-6.73,2.16-12.6,0-5.06-.68-8.74-2.04-11.05-1.36-2.31-3.1-3.47-5.22-3.47-.87,0-1.74.24-2.61.73-.87.49-1.66,1.35-2.37,2.57-.71,1.22-1.29,2.87-1.75,4.94-.46,2.07-.69,4.65-.69,7.75Z"/>
    <path class="cls-4" d="M413.3,21.8c0-1.79.62-3.32,1.88-4.57,1.25-1.25,2.77-1.88,4.57-1.88s3.32.63,4.57,1.88c1.25,1.25,1.88,2.77,1.88,4.57s-.63,3.32-1.88,4.57-2.77,1.88-4.57,1.88-3.32-.62-4.57-1.88c-1.25-1.25-1.88-2.77-1.88-4.57ZM414.28,55.33c0-3.32-.04-6.43-.12-9.34-.08-2.91-.26-5.83-.53-8.77.76.11,1.66.2,2.69.29,1.03.08,2.17.12,3.43.12,2.56,0,4.59-.13,6.12-.41-.27,2.94-.45,5.86-.53,8.77-.08,2.91-.12,6.02-.12,9.34v3.26c0,3.32.04,6.44.12,9.38.08,2.94.26,5.76.53,8.48-.71-.11-1.59-.16-2.65-.16h-6.89c-1.03,0-1.93.05-2.69.16.27-2.72.45-5.55.53-8.48.08-2.94.12-6.06.12-9.38v-3.26Z"/>
    <path class="cls-4" d="M462.54,42.57c-1.28-1.5-3.17-2.24-5.67-2.24-3.26,0-5.71,1.48-7.34,4.45-1.63,2.96-2.45,7.08-2.45,12.36,0,4.95,1.03,8.74,3.1,11.38,2.07,2.64,5.08,3.96,9.05,3.96,1.68,0,3.32-.39,4.89-1.18s2.75-1.67,3.51-2.65l.98.82c-.38.76-.71,1.55-.98,2.37-.27.82-.54,1.63-.82,2.45-1.2.92-2.71,1.7-4.53,2.32-1.82.62-3.98.94-6.48.94-3.97,0-7.32-.57-10.03-1.71-2.72-1.14-4.91-2.69-6.57-4.65-1.66-1.96-2.84-4.17-3.55-6.65-.71-2.47-1.06-4.96-1.06-7.46,0-2.99.5-5.76,1.51-8.32,1.01-2.56,2.45-4.76,4.32-6.61,1.88-1.85,4.15-3.3,6.81-4.36,2.66-1.06,5.63-1.59,8.89-1.59s5.72.35,7.87,1.06c2.15.71,4.2,1.63,6.16,2.77-.65,1.09-1.26,2.42-1.83,4-.57,1.58-.99,3.07-1.26,4.49h-1.96c-.44-2.45-1.29-4.42-2.57-5.91Z"/>
    <path class="cls-4" d="M476.61,41.87c2.28-1.85,4.74-3.26,7.38-4.24,2.64-.98,5.26-1.47,7.87-1.47,2.17,0,4.17.25,6,.73,1.82.49,3.4,1.26,4.73,2.32,1.33,1.06,2.37,2.43,3.1,4.12.73,1.69,1.1,3.73,1.1,6.12,0,3.48-.04,6.7-.12,9.67-.08,2.96-.12,5.91-.12,8.85,0,1.3.09,2.32.29,3.06.19.73.48,1.29.86,1.67.38.38.88.62,1.51.73.62.11,1.35.16,2.16.16v1.96c-1.58.65-2.91,1.14-4,1.47-1.09.33-2.26.49-3.51.49-2.01,0-3.64-.49-4.89-1.47-1.25-.98-2.2-2.39-2.86-4.24-1.25,1.74-2.71,3.13-4.36,4.16-1.66,1.03-3.74,1.55-6.24,1.55-2.07,0-3.83-.27-5.3-.82-1.47-.54-2.68-1.32-3.63-2.33-.95-1.01-1.65-2.15-2.08-3.43-.44-1.28-.65-2.57-.65-3.88,0-1.79.29-3.34.86-4.65.57-1.3,1.39-2.42,2.45-3.34,1.06-.92,2.33-1.7,3.79-2.32,1.47-.62,3.13-1.16,4.98-1.59,2.28-.54,4.09-1.02,5.42-1.43,1.33-.41,2.32-.82,2.98-1.22.65-.41,1.07-.86,1.26-1.35.19-.49.29-1.09.29-1.79,0-1.96-.69-3.63-2.08-5.02-1.39-1.39-3.3-2.08-5.75-2.08-.93,0-1.88.12-2.86.37s-1.92.58-2.81,1.02c-.9.44-1.71.91-2.45,1.43-.73.52-1.29,1.07-1.67,1.67h-.57l-1.06-4.89ZM495.94,64.06c0-2.34.01-4.12.04-5.34.03-1.22.04-2.3.04-3.22-1.14.65-2.35,1.18-3.63,1.59-1.28.41-2.45.93-3.51,1.55-1.06.63-1.93,1.48-2.61,2.57-.68,1.09-1.02,2.67-1.02,4.73s.42,3.55,1.26,4.61c.84,1.06,1.97,1.59,3.39,1.59,1.79,0,3.25-.68,4.36-2.04,1.11-1.36,1.67-3.37,1.67-6.04Z"/>
    <path class="cls-4" d="M518.37,28.49c-.11-4.46-.27-8.97-.49-13.54.71.11,1.6.2,2.69.29,1.09.08,2.23.12,3.43.12s2.34-.04,3.43-.12c1.09-.08,1.98-.18,2.69-.29-.22,4.57-.38,9.08-.49,13.54-.11,4.46-.16,9.35-.16,14.68v5.3c0,5.33.05,10.23.16,14.68.11,4.46.27,8.89.49,13.3-.71-.11-1.6-.16-2.69-.16h-6.85c-1.09,0-1.99.05-2.69.16.22-4.41.38-8.84.49-13.3.11-4.46.16-9.35.16-14.68v-5.3c0-5.33-.05-10.22-.16-14.68Z"/>
  </g>
  <g>
    <polygon class="cls-3" points="47.7 0 24.7 13.24 24.66 39.77 47.62 53.07 70.62 39.84 70.66 13.3 47.7 0"/>
    <path class="cls-2" d="M47.7,0l-23,13.24-.04,26.54,22.96,13.3,23-13.24.04-26.54L47.7,0ZM43.45,31.07c.07-.16,0-.77,0-.77.12-.08.13-.5.13-.5.11.1.2.04.2.04.37-.2.22.09.22.09.06,0,.11.14.11.14-.07.03-.03.11-.03.11.16.1.04.21.04.21-.23,0-.24.12-.24.12.12.21-.02.15-.02.15-.22-.19-.02.15-.02.15.3.27.2.27.2.27-.24,0-.14.07-.14.07.16.14.1.23.1.23-.26.11-.13.16-.13.16.04.33-.18.21-.18.21-.13.04-.4-.13-.4-.13-.18,0,.15-.55.15-.55ZM44.33,32.91c.2-.15.15.4.15.4.28-.26.1.16.1.16-.24.46-.3.11-.3.11-.32,0-.2-.34-.2-.34.06-.1.2.02.2.02-.11-.27.05-.35.05-.35ZM43.67,34.33c-.07-.02-.03-.17-.03-.17-.12.17-.2.07-.2.07-.12-.12.19-.25.19-.25-.2-.15.07-.13.07-.13.3.06.12.22.12.22.06.26-.15.27-.15.27ZM42.12,40.47s-.04-.52.22-.37c0,0,.16.41.12,0,0,0-.37-.55-.12-.41,0,0,0-.15.2.02,0,0,.16-.14.01-.22,0,0-.24-.17.17-.19,0,0,.07-.18-.03-.22,0,0-.07-.12-.09,0,0,0,0,.2-.12.23,0,0-.25.2-.26.3,0,0-.3-.03.05-.26,0,0-.41-.2-.11-.29,0,0,.12-.06.22-.03,0,0,.1-.33.41-.22,0,0-.03.15.09.06,0,0,.03-.11.17.04,0,0,.25.71.03,1.29,0,0,.27-.06.1.16,0,0-.01.01-.02.02,0,0,.1.25-.07.23,0,0-.05.26-.23.09,0,0-.24-.17.03-.2,0,0-.24-.31,0-.34,0,0-.02-.31.1-.34,0,0-.23.24-.3.14,0,0-.08.2.01.23,0,0,0,.46-.12.33,0,0-.06-.18-.19,0,0,0-.1-.07-.02-.22,0,0-.21.08-.26.17ZM42.27,38.4s-.18.08,0-.07c0,0-.26,0-.03-.14,0,0-.25-.33.08-.27,0,0,.51.88.13.87,0,0,.04.04-.17-.03,0,0-.26.04-.15-.27,0,0,.26-.05.26.06,0,0,.13-.18-.12-.14ZM43.07,38.7s0,.08.08,0c0,0,.07.18-.27.07,0,0-.28-.03-.21-.26,0,0,.15-.17.25,0,0,0-.08-.37,0-.43,0,0,.25.37.08.37,0,0,.08.14.08.25ZM42.53,37.99s.31.02.31.17c0,0-.09.43-.2.26,0,0-.21-.06-.08-.21,0,0-.19-.13-.03-.22ZM42.9,37.93s-.09.14-.24-.06c0,0-.12,0-.12.05,0,0-.1.03-.08,0,0,0-.07-.2.22-.24.02,0,.03,0,.05,0,.06,0,.1,0,.13-.01,0-.02,0-.04,0-.04-.02.02.13.03,0,.04,0,.08-.02.23.05.27ZM43.18,42.3c-.28.07-.12-.11-.12-.11-.24-.01.02-.1.02-.1.15-.04,0-.11,0-.11-.15-.21.1-.07.1-.07.27-.03.05.14.05.14-.1-.04-.06.25-.06.25ZM42.58,41.74c.15-.25.16,0,.16,0,.18-.15.06.08.06.08-.08.14.07.08.07.08.26.04-.02.13-.02.13-.17.21-.13-.06-.13-.06.09-.05-.13-.22-.13-.22ZM42.43,41.03c.25-.06.01-.14.01-.14-.26-.29.17-.11.17-.11.45-.03.08.19.08.19-.16-.05-.1.34-.1.34-.48.09-.2-.15-.2-.15-.4-.02.03-.13.03-.13ZM43.25,41.6c-.05.27-.15,0-.15,0,.06-.08-.22-.13-.22-.13,0-.29.14-.08.14-.08.08-.22.09.05.09.05,0,.16.1.04.1.04.25-.09.05.12.05.12ZM42.3,41.71c-.23-.01.02-.1.02-.1.15-.04,0-.1,0-.1-.15-.21.1-.08.1-.08.27-.03.05.14.05.14-.1-.04-.06.25-.06.25-.28.07-.12-.11-.12-.11ZM42.4,43.09c-.13-.07.14-.53.14-.53.24.17.03.29.03.29,0,.15-.17.24-.17.24ZM42.71,43.75c.01-.06-.1-.09-.06-.27.05-.17-.2-.18.04-.25.04,0,.05,0,.07,0,0-.07,0-.14.03-.14,0,0,.14.05.09.28,0,0,.09.07.16.05.01,0,.02,0,.03-.02.08-.06-.17.29-.06.22,0,0,.24-.16.03.09,0,0-.15.51-.16,0-.01-.51-.19.08-.18.03ZM44.02,45.54s-.24-.2-.3-.24c0,0-.17-.03-.26.01,0,0-.21.09-.21-.13,0-.03-.19-.05-.19-.19,0,0-.04-.1-.12-.17,0,0-.09-.07.03-.1,0,0,.29.17.3.32v.03s.28.1.28.01c0,0,.26.11.35.24,0,0-.02-.14.04-.08,0,0,.2.1.31.29,0,0-.1.06.05.08.15.02,0,.03,0,.03,0,0,.47.13-.09.04,0,0-.14-.02-.24,0,0,0-.07-.12.05-.16ZM43.45,43.95c-.15-.21.1-.07.1-.07.27-.03.05.13.05.13-.1-.03-.06.25-.06.25-.28.07-.12-.11-.12-.11-.23-.01.02-.1.02-.1.15-.04,0-.1,0-.1ZM43.7,44.75c-.07-.02-.03-.17-.03-.17-.12.17-.2.07-.2.07-.12-.12.19-.25.19-.25-.2-.15.07-.13.07-.13.3.06.12.21.12.21.06.27-.14.27-.14.27ZM45.05,46.76s-.07-.11-.08.13c0,0-.11,0-.08-.1,0,0-.23.25-.26.12,0,0-.31-.06.08-.1,0,0-.03-.22.13-.23,0,0-.08-.13-.21-.04,0,0-.08-.01-.09-.1,0,0-.12.1-.03.24,0,0,0,.26-.24,0,0,0-.06-.25.01-.37,0,0-.24-.04-.3.08,0,0,.13-.12,0-.24,0,0,0-.18.24-.06,0,0,.21.06-.07-.13,0,0,.03-.1.28-.02,0,0-.05-.28.18,0,0,0,.12.13.13.01,0,0,0,.19.08.2.07.02.07,0,.07,0v-.14s.27.08.15.17c0,0-.07.17.11.09,0,0,.33.2,0,.21,0,0-.11.08,0,.19,0,0,.08.2-.1.08ZM47.06,48.45s0,.09-.15.07c0,0-.07.27-.11,0,0,0,.05-.18-.14.01,0,0-.37-.09-.27-.24,0,0-.18-.19-.24-.16,0,0-.24.01-.04-.08,0,0,.29-.02.39.13,0,0,.22.15.32-.03,0,0-.32-.03-.05-.12,0,0,.34.03.21.16,0,0-.26.12-.34.13.1,0,.48.03.41.11ZM47.19,48.05s-.17.21-.15-.13c0,0,0,.15-.21.06,0,0-.08-.02-.2.08,0,0-.22,0,.02-.12,0,0,.16-.06.21-.18,0,0,0-.09-.14.07,0,0-.09.1-.22.09,0,0-.3.25-.11-.1,0,0,.03-.22-.13-.05,0,0-.02.17-.12.02,0,0-.01-.03.05-.06,0,0-.12-.13-.03-.13,0,0-.12-.05-.12.07,0,0,.06.17-.14.08,0,0-.15.05-.15-.05,0,0-.07-.02-.11.09h-.15s0,.07.07.12c0,0-.1.09-.11,0v-.09s-.19-.07.02-.08c0,0,.12-.03.07-.09,0,0-.2-.36.09-.07,0,0,.07.13.14-.02,0,0-.08-.11-.13-.06,0,0-.03-.21.14-.04,0,0,0,.14.11.05.11-.1,0-.03,0-.03,0,0-.15-.15.14-.02,0,0-.06-.26.23.04h.17s.03-.29.24-.21c0,0,.12.01-.06.32,0,0,.07.18.11,0,0,0-.07-.41.2-.08,0,0,.35.27.1-.07,0,0-.21-.32-.47-.27,0,0-.2-.33.09-.15,0,0,.38.33.53.35,0,0,.14.04,0-.08,0,0,.03-.31.21,0,0,0,.06.15.06.23,0,0,.12.22.11-.02,0,0-.25-.4-.01-.28,0,0,.1.06.19.21,0,0,.09.01.03-.12,0,0,.33.05.25.21,0,0-.24.46-.03.14,0,0,.07-.13.12-.03,0,0-.03-.2.12-.2,0,0-.01-.1-.12-.14,0,0-.84-.32-.86-.58,0,0-.15-.35,0-.41,0,0,.7-.16.75-.36,0,0,.08-.32-.4-.2,0,0-.64.35-.68-.08,0,0,.03-.79.11-.44,0,0,.17.09.21-.11,0,0,.04-.23-.19-.08,0,0,.08-.18-.1-.21,0,0,.15-.19.37.07,0,0,.09.12.27-.09,0,0,.12-.13.12-.24l-.04-.11.2-.11s.25.62.55.16c0,0,.2-.12.2.97,0,0-.11,2.41-.03,2.62,0,0-.03.09-.14-.04,0,0-.25-.17-.07,0,0,0,.19.18-.12.16,0,0-.61-.03-.61-.3,0,0-.03-.17-.11.03,0,0-.1.18-.18.08,0,0-.03.17-.17.03ZM46.67,46.38c-.05-.2.23-.33.23-.33-.05.07.06.62.06.62.08.25-.1.1-.1.1-.14-.22-.15-.11-.15-.11-.05.06.1.31.1.31-.04.32-.26-.15-.26-.15-.19-.34.06-.37.06-.37.26.09.06-.08.06-.08ZM47.57,48.22s.06-.21.21,0c0,0,.24-.05.26.02,0,0-.27.1-.34.13,0,0-.42.13-.27-.13,0,0-.01-.21.14-.01ZM49.76,48.78s-.07-.05-.05-.16c0,0-.15-.05-.21.08,0,0-.3.14-.14-.04,0,0-.09-.12-.17-.01,0,0-.12.2-.14-.03v-.28l-.2-.04s.06.11-.1.2c0,0-.08.2-.48-.11,0,0-.01.13.21.2,0,0,.49.04.52.19l-.28.04s.69.31.43.67c0,0-.08.11-.25-.33,0,0-.43-.34-.48.02,0,0-.28-.14,0-.48,0,0,.05-.17-.17.04,0,0-.34-.05-.21-.18,0,0-.25-.03-.12.04,0,0,.27.12-.08.13,0,0,.44.32.29.4,0,0-.19.01-.51-.32,0,0,0-.07.05-.11-.12.05-.34.13-.22-.11,0,0-.22-.07.01-.16,0,0,.28-.1.29.08,0,0,.41-.34,1.04-.26,0,0,.03,0,.05.03,0,0-.03-.08.03-.09,0,0,1.09-.19,1.16.21,0,0,.03.5-.26.37ZM49.51,10.06s-1.18.52-.7.96c0,0-.3.37-.07.79,0,0,.11.57-.09.63,0,0,.57.72-.07.76,0,0-1.62,1.53-1.14,3.23,0,0,.06.31-.28.22,0,0-.22.45-.09.68,0,0-.66.33.04.96,0,0-.04.26-.11.27,0,0,.41.91.24,1.03,0,0-.02.19.3.22,0,0-.17.75-.07.98,0,0-.06.14-.2.06,0,0-.22.83-.32.81,0,0,.24.24-.13.33,0,0,.52,1.33-.46,1.26,0,0-.46-.13.02.13,0,0,.02.24-.13.32,0,0-.02.16.09.27,0,0,0,.32-.11.37,0,0-.09.11.06.22,0,0-.11.26.15.65,0,0-.05.42.13.68,0,0,.13.04-.55.42,0,0,.04.83-.2.74,0,0,.07.66-.17.61,0,0,.05.24.17.27,0,0-.19.31-.24.31h.06s-.11,1.33.13,1.79c0,0-.09.24-.29.11,0,0-.15.17-.04.24,0,0,.07.29-.04.31,0,0-.28.61.35.81,0,0-.04.22-.2.24,0,0,.11.13.07.19-.04.05.06-.11.11.13,0,0,.18.55,0,.46,0,0-.29.46.18.55,0,0,.66-.06.17.44,0,0-.96,0-.42.17,0,0,.62.34.46.48,0,0-.06.15-.13.18,0,0,0,.18-.11.18,0,0-.29-.03-.11.4,0,0,.2.29-.17.41,0,0,.45.89-.02.87,0,0-.09.14-.03.27,0,0,.02.12-.04.13,0,0,.31.27-.04.2,0,0-.08.34-.28.28,0,0,.05.2-.02.28,0,0-.3.4-.1.48,0,0,.34.51,0,.58,0,0-.2.1-.13.54,0,0-.13.26-.38.28,0,0-.05.3-.21.3,0,0,.2.21.05.14,0,0-.47-.04-.31.55,0,0,.02.27-.06.35,0,0,.16.04.06.28,0,0,.2.09.31.85,0,0,0,.26.29-.08,0,0,.08-.12.2.03,0,0,0,.06.16-.08,0,0,.27-.18.11.44,0,0-.22.81.2,1.23,0,0-.01.41,1.82.46,0,0,.83,0,1.59.44,0,0-.39,0-.72-.2,0,0-.11-.06-.34.45,0,0-1.22-.2-1.3,1.75,0,.03,0,.05,0,.07,0-.01,0-.02,0-.03,0,.04-.02.41-.03.64.02.03.04.09.04.21,0,0-.04.43-.27.2,0,0-.1-.06.06-.11,0,0-.24.12-.2-.21,0,0-.13.15-.1.25,0,0-.35-.31-.33-.4,0,0-.07.1.15.31.22.21,0,.03,0,.03,0,0-.15.04-.14.14,0,0-.19.01-.06-.2,0,0-.16-.05-.1-.15,0,0-.06-.12-.13,0,0,0-.14-.41.07-.28,0,0,0,.14.07.08,0,0,.03-.34.19-.19,0,0-.05.19.1.08,0,0,.13.05,0,.23,0,0,.09.09.1-.01,0,0,.04-.27.19-.06,0,0,.03.14.04-.05,0,0,.15.01.15.26,0,0,.1-.16.16-.1,0-.13.01-.32.03-.61-.02.14-.16.66-1.16-.15,0,0-.4-.41.11-.52,0,0,.08.12-.03.27,0,0,.15,0,.17-.23,0,0,.02-.24.18.03,0,0,.45-.31.58-.5,0,0,.06-.18-.19-.37,0,0-.04.2-.24.27,0,0-.5.54-.5.22,0,0-.43-.06-.16.03,0,0,.2.23,0,.2,0,0-.19-.08-.06.07,0,0-.05.23-.14.19-.09-.05-.05,0-.05,0,0,0,.36.25.15.26,0,0-.81-.48-.63-.56,0,0,.15-.1.32.11,0,0,.09.06,0-.13,0,0,0-.03.04-.05-.06,0-.15,0-.15-.07,0,0,0-.19-.13-.04,0,0-.36.1-.33-.13,0,0,.06-.06.15-.06,0,0-.02-.09-.29-.21l.27-.02s-.06-.15.06-.2c0,0,.1-.13.09-.23,0,0,.21,0,.23.08,0,0-.09.14-.09.2,0,0,.38-.3.14.08,0,0,.23-.06.14.1,0,0,.14-.07.19,0,0,0,.07-.28.46-.21,0,0,.9.04.12-.22,0,0-.56-.12-.56.17,0,0-.17-.02-.06-.17,0,0-.43.03-.42-.11-.05.03-.09.05-.09.05-.1-.09-.19.01-.19.01.06.05.06.13.06.13-.12.31-.17-.04-.17-.04-.1.29-.27.23-.27.23-.01-.09.11-.4.11-.4-.15,0-.1-.1-.1-.1.07-.02.04-.29.04-.29-.07-.12-.08.06-.08.06l-.36-.35c.03-.3.35.17.35.17-.04-.13.04-.13.04-.13,0,.04.12.21.12.21-.03-.09.1-.05.1-.05.14.21.16.06.16.06.24-.29.24-.06.24-.06-.1.14.08.14.08.14.11.05.1-.21.1-.21-.28.33-.04-.17-.04-.17.1-.19.26.34.26.34.01.15-.21.31-.34.38,0,0,.2-.08.34-.05,0,0-.08-.1.04-.15,0,0,.19-.13-.1-.44,0,0-.1-.13.09-.12,0,0,.28-.35-.4-.67,0,0-.05.09.1.11,0,0,.41.31.21.32,0,0-.2.1-.44-.21,0,0-.26-.17-.08.08,0,0,.3.2.14.2-.16,0,0,.03,0,.03,0,0-.14.12-.13.24,0,0-.08.29-.24.02,0,0-.43-.44-.14-.29,0,0,.11-.25-.07-.23,0,0-.11.3-.24.03,0,0-.02-.04-.03-.07-.02.03-.04.05-.04.05.06.26-.15.27-.15.27-.07-.02-.03-.17-.03-.17-.12.17-.2.07-.2.07-.12-.12.19-.25.19-.25-.2-.15.07-.13.07-.13.16.03.18.09.17.14.02,0,.05.03.12.1,0,0,.08-.09-.1-.17,0,0-.12-.32.01-.32,0,0,.21.14.23.29,0,0,.05-.26-.15-.48,0,0,.03-.02.1-.01,0,0,0-.36-.14-.07,0,0-.37.13-.24-.32,0,0-.25.17-.06-.14,0,0,.12-.19.32.06,0,0,.02,0-.03-.15,0,0-.04-.05.09-.02,0,0-.06-.39.19-.21,0,0,.26.09-.12-.14,0,0,.22-.5-.07-.04,0,0,.02.16-.09.27,0,0-.26.3-.22-.04.03-.34,0-.03,0-.03,0,0-.28-.39-.1-.28.03.02.03.02.05.03.08.03.37.13.14-.08,0,0-.04-.15-.22-.06,0,0-.09-.07-.04-.22,0,0-.25.39-.15,0,0,0-.4-.05-.14-.23,0,0,.23-.11.29.08,0,0,.44.38.28.11,0,0-.48-.3-.27-.43,0,0,.04.16.28.13,0,0,.06-.07-.15-.13,0,0-.33-.14-.14-.21,0,0,.26-.05.09-.12,0,0-.25.12-.01-.2,0,0,.1-.1.24.03s.01.03.01.03c0,0,.16.16.17.24,0,0,.07-.07.02-.15,0,0-.12.04-.12-.22,0,0-.22.02-.22-.12,0,0-.05-.34.12-.15,0,0-.14-.44.06-.41l-.2-.03s.08.27-.04.28c0,0-.07-.03-.03.08,0,0-.02.65-.23-.1,0,0-.23-.68.25-.67,0,0-.41-.06-.06-.33,0,0,.17.07.2.16,0,0-.1-.21.1-.27,0,0-.29.04-.3-.09,0,0-.03.27-.19.21,0,0-.15-.14,0-.14s.03-.01.03-.01c0,0-.26-.18-.16-.36,0,0,.06-.02.08.02,0,0,.05-.14-.08-.11,0,0-.11-.17.15-.12l.12.2c-.04-.09-.05-.19.14-.17,0,0,.15,0,.27.11,0,0,.26.03.24.2,0,0,.04.07.07-.04,0,0,.04-.06.15,0,0,0,.14-.1,0-.09,0,0-.23.02-.28-.3,0,0,.01-.07.1.05,0,0,0-.07-.05-.16,0,0-.12-.01-.12-.12,0,0,0-.14.03-.23,0,0-.1-.09-.06.1,0,.05.01.07.02.08h0s0-.05,0-.05c0,0,0,.02,0,.05,0,.02,0,.02,0,0,0,.07-.01.2-.23.17,0,0-.29-.13-.27-.17,0,0,0-.1.19-.1,0,0-.1-.08,0-.12,0,0-.22.13-.28-.02,0,0-.08-.08-.02-.08,0,0-.07-.06-.12-.06,0,0,.18-.39.33-.26,0,0,.06.03.03.1,0,0,0-.3.15-.13,0,0,.08-.28-.06-.33,0,0-.09-.18-.08-.18,0,0-.28-.18-.35-.12,0,0,.05.06-.09.07,0,0-.02.05.14.07,0,0,0,.08-.15.06,0,0-.17-.08-.17-.19,0,0-.3.11-.19-.31,0,0,.1-.03.09-.12,0,0-.08-.01-.15.14,0,0-.16.15-.34.14,0,0-.12.04-.13.14,0,0,.24-.17.2.16,0,0-.08.27-.26-.01,0,0-.12-.36.08-.4,0,0,.3-.37.47-.3,0,0,.09-.28.26-.23,0,0-.08-.14.04-.17v-.13s-.09.25-.3.2c0,0-.12-.12.06-.14,0,0-.19-.2.03-.13.22.08.03,0,.03,0,0,0,.12-.16.17-.11,0,0,.23,0,.26.21,0,0-.03-.26.12-.24,0,0,.3-.02.19.14,0,0,.2.12.08.28,0,0,.19.01.21.1,0,0,.16.19-.14.41,0,0,.02.35.21-.04,0,0,.03-.2.19-.21,0,0-.06-.06,0-.14,0,0-.11.23-.09-.03,0,0,.01-.66.35-.66,0,0,.1-.14-.12-.04,0,0-.14.07-.17.14,0,0,.02-.45.16-.47,0,0,.13-.22.23-.05,0,0,.23.26.29.05,0,0-.01.03-.18-.08,0,0-.28-.16-.35-.09,0,0-.16-.11.09-.15,0,0,.02-.05-.04-.12,0,0-.1-.13.1-.15,0,0,.5-.13.59-.68,0,0-.11,0-.11.08,0,0-.24-.33-.41-.33,0,0-.29-.03.18-.56l.14-.03s-.07-.17-.14-.1c0,0-.19,0,.05-.12,0,0-.02-.06-.12-.1,0,0-.2-.1.14-.44,0,0-.03-.39.13-.19,0,0-.26-.75.12-.69,0,0-.23-.27-.13-.35,0,0,.17-.12.23.08,0,0,0,.01,0,.03.06.23.08.23.08.07,0,0-.07-.27,0-.29,0,0-.28-.04-.04-.11,0,0,.05-.24-.09-.03,0,0-.42-.03-.23-.22,0,0,.28-.19.47-.26v-.32s-.08.54-.33.32c0,0-.17-.33-.37-.11,0,0,.05.23-.22.27,0,0-.5.06-.35-.14,0,0,.06-.12.15-.16,0,0-.36.16-.36-.31,0,0,.02-.97.17-1.2,0,0-.1-.11.02-.2,0,0-.06-.3.23-.35,0,0,.08.01.07-.07,0,0-.03-.36.2-.47l-.06-.02s-.26-.95-.13-1.09c0,0-.07-.08-.12,0,0,0,.05-.4-.04-.67,0,0-.34-1.11.15-.8,0,0,.19.16.24-.32,0,0-.05-.55.05-.26,0,0,.1.06.1-.09,0,0-.02-.13.03-.17,0,0,.02,0,.03,0,.09,0,.03-.4.13-.47,0,0-.06-.07.01-.17,0,0,.15-.06.14-.22,0,0-.09-.11.03-.27,0,0,.13-.36.31-.44,0,0,.03-.46.14-.4,0,0,0-.85.26-.86,0,0-.13-.09-.04-.18,0,0,.2-.13.18-.42,0,0-.14-.39.02-.48,0,0,.19-.33.19-.48,0-.01-.03-.32-.09-.46,0,0,0-.27.01-.48,0,0-.49-1.5.11-1.72,0,0,0-.26.08-.27,0,0,.03-.44-.12-.69,0,0-.04-.52.27-1.36,0,0,.44-1.16.46-1.53,0,0-.08-.43.1-.54,0,0-.26,0-.13-.3,0,0,.02-.14.17-.35,0,0,.03-.65-.07-1.06,0,0,0-.5.17-.68,0,0,.02-.17-.18-.08,0,0-.1-.63.12-.45,0,0,.11.06.14-.31,0,0-.12-1.16.43-1.33,0,0-.32-.08-.3-.71,0,0-.03-1.19-.12-1.42,0,0-.03-.09.05-.12,0,0-.14-.1-.08-.45,0,0,.05-.32-.03-.41,0,0,.54.13.48-.39,0,0,.06-.27.29-.37,0,0,.2.5.39.5,0,0-.02.7.13.96,0,0,.79.54.24.74,0,0,.33.28-.04.35,0,0-.13.35.2.48,0,0-.17.31.2.5,0,0,.39.92.37,1.77,0,0,.28.17.59,0,0,0,.79.2-.33,1.25Z"/>
  </g>
  <g>
    <polygon class="cls-3" points="23.04 41.65 .04 54.88 0 81.42 22.96 94.72 45.96 81.49 46 54.95 23.04 41.65"/>
    <g>
      <path class="cls-2" d="M23.07,61.46c-3.58,0-6.48,2.9-6.48,6.48s2.9,6.48,6.48,6.48,6.48-2.9,6.48-6.48-2.9-6.48-6.48-6.48ZM27.1,66.48l-1.6,1.54-2.14-.61-.53-2.16,1.6-1.54,2.13.62.53,2.16ZM22.78,70.85l-2.06,2.12s-2.49-1.43-2.74-2.81l2.18-1.99s-.62-2.8.94-4.05c0,0,1.06-1.43,3.36-1.12l-2.06,2.25.56,2.62,2.49.56,2.56-2.06s.25,5.42-5.24,4.49Z"/>
      <path class="cls-2" d="M23.04,41.65L.04,54.88l-.04,26.54,22.96,13.3,23-13.24.04-26.54-22.96-13.3ZM34.36,74.43c-.59-.47-1.33-.75-2.14-.75-1.88,0-3.41,1.52-3.41,3.41,0,.86.32,1.63.84,2.23-1.03.62-2.15,1.09-3.34,1.41-.14-1.76-1.6-3.15-3.39-3.15s-3.24,1.36-3.39,3.1c-1.07-.3-2.08-.72-3.02-1.27.57-.61.92-1.43.92-2.33,0-1.88-1.53-3.41-3.41-3.41-.89,0-1.7.34-2.31.9-.56-.98-.99-2.04-1.28-3.16,1.73-.16,3.09-1.62,3.09-3.39s-1.31-3.17-3-3.38c.31-1.09.76-2.13,1.33-3.09.56.41,1.25.65,2,.65,1.88,0,3.41-1.52,3.41-3.41,0-.71-.22-1.38-.6-1.92.95-.53,1.97-.95,3.05-1.23.24,1.64,1.66,2.9,3.37,2.9s3.1-1.24,3.36-2.86c1.09.3,2.13.74,3.09,1.3-.4.56-.63,1.24-.63,1.97,0,1.88,1.53,3.41,3.41,3.41.73,0,1.4-.23,1.95-.61.5.88.91,1.82,1.2,2.82-1.64.25-2.89,1.66-2.89,3.37s1.32,3.19,3.02,3.38c-.27,1.1-.68,2.14-1.22,3.11Z"/>
      <path class="cls-2" d="M23.76,65.87c-.02.67.5,1.23,1.17,1.26.67.02,1.23-.5,1.26-1.17.02-.67-.5-1.23-1.17-1.25-.67-.03-1.23.5-1.26,1.17Z"/>
    </g>
  </g>
  <g>
    <polygon class="cls-3" points="72.35 41.69 49.35 54.92 49.31 81.46 72.28 94.76 95.28 81.52 95.31 54.99 72.35 41.69"/>
    <path class="cls-2" d="M72.35,41.69l-23,13.23-.04,26.54,22.96,13.3,23-13.24.04-26.54-22.96-13.3ZM91.81,71.67l-5.57-.04s-.38.07-.59-.4c0,0-1.14-2.49-1.88-2.87,0,0-.23-.2-.68.1l-3.32,3.12-5.17.11-1.32,4.92s-.35.79-.99.07l-.86-15.03-.83,12.27s-.18.73-.84.28l-1.31-2.53-3.95-.02s-1.4-1.78-1.95-2.01c0,0-.41-.21-1.16.1l-3.16,1.85-5.66.03s-.88-.51-.05-1.04l5.37.02s2.49-2.03,4.03-2.1c0,0,1.22-.28,3.15,2.08l3.98.02.64,1.09,1.27-19.59s.46-.59.94,0l1.26,20.71.51-1.87s.1-.4.48-.38l5.07-.03s2.87-3.55,4.34-3.32c0,0,1.39-.36,3.01,3.37l5.17.02s.73.43.05,1.06Z"/>
  </g>
  <g>
    <path d="M533.49,11.02c.21-.04.52-.07.8-.07.45,0,.74.08.94.27.16.14.26.37.26.62,0,.43-.27.71-.61.83h0c.25.1.4.33.48.67.11.45.18.77.25.89h-.43c-.05-.09-.13-.37-.22-.78-.1-.45-.27-.62-.65-.63h-.4v1.41h-.42v-3.2ZM533.91,12.5h.43c.45,0,.73-.25.73-.62,0-.42-.3-.6-.75-.61-.2,0-.35.02-.41.04v1.19Z"/>
    <circle class="cls-1" cx="534.55" cy="12.59" r="2.91"/>
  </g>
</svg>