<svg width="900" height="620" viewBox="0 0 900 620" fill="none" xmlns="http://www.w3.org/2000/svg">
  <rect width="900" height="620" rx="34" fill="#EAF8FC"/>
  <rect x="86" y="82" width="728" height="456" rx="32" fill="white" stroke="#D7E9EF" stroke-width="3"/>
  <rect x="128" y="132" width="644" height="72" rx="20" fill="#213255"/>
  <rect x="158" y="158" width="170" height="20" rx="10" fill="#58C3DE"/>
  <rect x="610" y="154" width="110" height="28" rx="14" fill="#F6FBFD"/>
  <rect x="128" y="246" width="260" height="210" rx="26" fill="#F6FBFD" stroke="#D7E9EF" stroke-width="2"/>
  <path d="M166 352H209L230 294L268 418L302 352H350" stroke="#58C3DE" stroke-width="14" stroke-linecap="round" stroke-linejoin="round"/>
  <rect x="430" y="246" width="342" height="210" rx="26" fill="#F6FBFD" stroke="#D7E9EF" stroke-width="2"/>
  <circle cx="512" cy="352" r="52" fill="#DFF6FB"/>
  <path d="M512 318V386M478 352H546" stroke="#213255" stroke-width="16" stroke-linecap="round"/>
  <rect x="598" y="306" width="124" height="18" rx="9" fill="#213255"/>
  <rect x="598" y="350" width="96" height="16" rx="8" fill="#C9E8F1"/>
  <rect x="598" y="390" width="138" height="16" rx="8" fill="#C9E8F1"/>
  <rect x="168" y="486" width="174" height="30" rx="15" fill="#58C3DE"/>
  <rect x="374" y="486" width="174" height="30" rx="15" fill="#EAF8FC" stroke="#D7E9EF" stroke-width="2"/>
  <rect x="580" y="486" width="174" height="30" rx="15" fill="#213255"/>
</svg>
